# xmcd
#
# Track frame offsets:
#	183
#	18295
#	35415
#	53378
#	80468
#	100008
#	120255
#	137818
#	153025
#	168838
#	185215
#	207150
#
# Disc length: 2916 seconds
#
# Revision: 0
# Processed by: cddbd v1.4PL0 Copyright (c) Steve Scherf et al.
# Submitted via: dBpowerAMP V4.0
#
DISCID=880b620c
DTITLE=Graham Foster - Blue Rythmn
DYEAR=1900
DGENRE=
TTITLE0=Blue Rythmn
TTITLE1=She Belongs To Me
TTITLE2=Going Back To Valencia
TTITLE3=Alligator Crawl
TTITLE4=Love Of A Woman
TTITLE5=Night Train
TTITLE6=She Sounds Good To Me
TTITLE7=King-Pickin'
TTITLE8=Feel So Good
TTITLE9=You Don't Need Me
TTITLE10=No Smoke Without Fire
TTITLE11=Back Door Blues
EXTD=
EXTT0=
EXTT1=
EXTT2=
EXTT3=
EXTT4=
EXTT5=
EXTT6=
EXTT7=
EXTT8=
EXTT9=
EXTT10=
EXTT11=
PLAYORDER=
